<?xml version="1.0" ?>
<!DOCTYPE svg  PUBLIC '-//W3C//DTD SVG 1.0//EN'  'http://www.w3.org/TR/2001/REC-SVG-20010904/DTD/svg10.dtd'>
<!-- Uploaded to: SVG Repo, www.svgrepo.com, Generator: SVG Repo Mixer Tools -->
<svg fill="#000000" width="800px" height="800px" viewBox="0 0 100 100" version="1.0" xml:space="preserve" xmlns="http://www.w3.org/2000/svg" xmlns:xlink="http://www.w3.org/1999/xlink">
<g id="_x31_"/>
<g id="_x32_"/>
<g id="_x33_"/>
<g id="_x34_"/>
<g id="_x35_">
<path d="M66.8,66H33.2c-0.4,0-0.9-0.1-1.2-0.4c-7.3-5.6-11.5-14.2-11.5-23.4c0-16.3,13.2-29.5,29.5-29.5s29.5,13.2,29.5,29.5   c0,9.2-4.2,17.8-11.5,23.4C67.7,65.8,67.2,66,66.8,66z M33.9,62h32.2c6-4.9,9.4-12.1,9.4-19.8c0-14.1-11.5-25.5-25.5-25.5   S24.5,28.1,24.5,42.2C24.5,49.9,27.9,57.1,33.9,62z M76.5,79.5h-53c-0.6,0-1.2-0.3-1.6-0.8c-0.4-0.5-0.5-1.1-0.3-1.7l3.8-13.6   c0.2-0.9,1-1.5,1.9-1.5h45.5c0.9,0,1.7,0.6,1.9,1.5L78.4,77c0.2,0.6,0,1.2-0.3,1.7C77.7,79.2,77.1,79.5,76.5,79.5z M26.1,75.5h47.8   L71.2,66H28.8L26.1,75.5z M78.9,88.9H21.1c-3.7,0-6.7-3-6.7-6.7s3-6.7,6.7-6.7h57.9c3.7,0,6.7,3,6.7,6.7S82.6,88.9,78.9,88.9z    M21.1,79.5c-1.5,0-2.7,1.2-2.7,2.7c0,1.5,1.2,2.7,2.7,2.7h57.9c1.5,0,2.7-1.2,2.7-2.7c0-1.5-1.2-2.7-2.7-2.7H21.1z M60.9,42.9   c-0.7,0-1.4-0.4-1.7-1l-2.5-4.4l-4.5-2.3c-0.6-0.3-1.1-1-1.1-1.7c0-0.7,0.4-1.4,1-1.8l4.4-2.5l2.3-4.5c0.3-0.6,1-1.1,1.7-1.1   c0.7,0,1.4,0.4,1.8,1l2.5,4.4l4.5,2.3c0.6,0.3,1.1,1,1.1,1.7c0,0.7-0.4,1.4-1,1.8L65,37.3l-2.3,4.5C62.3,42.4,61.6,42.8,60.9,42.9   C60.9,42.9,60.9,42.9,60.9,42.9z M57.2,33.3l1.8,0.9c0.3,0.2,0.6,0.4,0.8,0.8l1,1.7l0.9-1.8c0.2-0.3,0.4-0.6,0.8-0.8l1.7-1   l-1.8-0.9c-0.3-0.2-0.6-0.4-0.8-0.8l-1-1.7l-0.9,1.8c-0.2,0.3-0.4,0.6-0.8,0.8L57.2,33.3z M36.7,51.4c0.4-0.4,0.6-0.9,0.6-1.4   c0-0.5-0.2-1-0.6-1.4c-0.7-0.7-2.1-0.7-2.8,0c-0.4,0.4-0.6,0.9-0.6,1.4c0,0.5,0.2,1,0.6,1.4c0.4,0.4,0.9,0.6,1.4,0.6   C35.8,52,36.3,51.8,36.7,51.4z"/>
</g>
<g id="_x36_"/>
<g id="_x37_"/>
<g id="_x38_"/>
<g id="_x39_"/>
<g id="_x31_0"/>
<g id="_x31_1"/>
<g id="_x31_2"/>
<g id="_x31_3"/>
<g id="_x31_4"/>
<g id="_x31_5"/>
<g id="_x31_6"/>
<g id="_x31_7"/>
<g id="_x31_8"/>
<g id="_x31_9"/>
<g id="_x32_0"/>
<g id="_x32_1"/>
<g id="_x32_2"/>
<g id="_x32_3"/>
</svg>